# File created by Blade
# Date/Time:  Wed Sep 24 20:26:02 2014
# Frame Rate: 120.000 fps
#------------------------------------------------------
:FULLY-SPECIFIED
:DEGREES
863
root -6.465482 33.633554 0.119345 182.742183 -63.990133 -85.955294
Spine -30.463942 17.357829 0.406513
Head -81.156794 21.489234 -5.503466
LeftShoulder -11.103018 24.747956 13.516021
LeftArm -2.284215 42.218157 -74.745856
LeftForeArm 16.597247 -0.000000 12.185791
LeftHand -28.262131 0.000000 -10.701033
LeftHandThumb1 -26.253704 0.000000 33.147579
RightShoulder -21.930047 10.480894 -23.675813
RightArm -30.736528 -26.777333 100.190079
RightForeArm -33.147806 -0.000000 13.547343
RightHand -6.276870 -0.000000 25.033474
RightHandThumb1 -24.326973 -0.000000 -32.862282
LeftUpLeg -87.680887 20.185320 11.308976
LeftLeg -9.819120 -0.000000 0.000000
LeftFoot -3.490338 29.948584 0.129930
LeftToeBase 4.122782 -0.000000 -0.000000
RightUpLeg 11.770361 -5.059138 -14.957361
RightLeg 22.584244 -0.000000 -0.000000
RightFoot 42.734625 2.842867 1.454993
RightToeBase 18.468036 -0.000000 -0.000000
864
root -6.481404 33.634077 0.106516 182.687767 -64.072125 -86.565299
Spine -30.180551 17.379457 0.454595
Head -80.725106 21.754384 -5.641628
LeftShoulder -11.041503 24.690631 13.514143
LeftArm -1.967258 42.072647 -74.457074
LeftForeArm 16.365943 -0.000000 12.292323
LeftHand -28.450901 -0.000000 -10.363844
LeftHandThumb1 -26.253704 0.000000 33.147579
RightShoulder -21.903455 10.538230 -23.702693
RightArm -30.601999 -27.172852 100.426420
RightForeArm -33.037588 -0.000000 13.492264
RightHand -6.268813 -0.000000 24.919580
RightHandThumb1 -24.326973 -0.000000 -32.862282
LeftUpLeg -86.878077 20.005558 11.533362
LeftLeg -9.888426 -0.000000 0.000000
LeftFoot -3.517507 30.126855 -0.021649
LeftToeBase 4.135661 -0.000000 -0.000000
RightUpLeg 11.664753 -5.120653 -14.891830
RightLeg 22.503739 -0.000000 -0.000000
RightFoot 42.733544 2.962250 1.310313
RightToeBase 18.369110 -0.000000 -0.000000
865
root -6.500876 33.632367 0.088853 182.540258 -64.131320 -87.107050
Spine -29.878132 17.375157 0.568978
Head -80.285951 21.977293 -5.668012
LeftShoulder -11.066145 24.731686 13.445184
LeftArm -1.558668 42.016521 -74.098404
LeftForeArm 16.401856 0.000000 12.444893
LeftHand -28.660056 0.000000 -9.960162
LeftHandThumb1 -26.253704 0.000000 33.147579
RightShoulder -22.009886 10.652927 -23.707220
RightArm -30.499542 -27.957099 100.697517
RightForeArm -32.675849 -0.000000 13.436637
RightHand -6.245090 0.000000 25.070249
RightHandThumb1 -24.326973 -0.000000 -32.862282
LeftUpLeg -86.043954 19.842028 11.762774
LeftLeg -9.964045 -0.000000 0.000000
LeftFoot -3.560979 30.277821 -0.131773
LeftToeBase 4.094233 -0.000000 -0.000000
RightUpLeg 11.575913 -5.081567 -14.744723
RightLeg 22.364346 -0.000000 -0.000000
RightFoot 42.785750 3.114267 1.130233
RightToeBase 18.288160 -0.000000 -0.000000
866
root -6.535002 33.639467 0.071369 182.729736 -64.222115 -87.772994
Spine -29.970629 17.313099 0.458533
Head -79.712560 22.261560 -5.533346
LeftShoulder -11.077142 24.885105 13.460157
LeftArm -1.075262 42.079244 -73.649186
LeftForeArm 16.096396 0.000000 12.592841
LeftHand -28.873915 -0.000000 -9.618945
LeftHandThumb1 -26.253704 0.000000 33.147579
RightShoulder -22.151758 10.584341 -23.629180
RightArm -30.263914 -28.306557 100.757136
RightForeArm -32.988668 0.000000 13.432967
RightHand -6.281721 -0.000000 25.111128
RightHandThumb1 -24.326973 -0.000000 -32.862282
LeftUpLeg -85.429286 19.676110 11.782401
LeftLeg -10.075773 -0.000000 0.000000
LeftFoot -3.552261 30.374103 -0.288292
LeftToeBase 4.063343 -0.000000 -0.000000
RightUpLeg 11.243043 -5.115816 -14.596468
RightLeg 22.164900 -0.000000 -0.000000
RightFoot 42.935710 3.319467 1.005518
RightToeBase 18.211970 -0.000000 -0.000000
867
root -6.557608 33.645875 0.045132 182.469390 -64.239238 -88.237138
Spine -29.629927 17.403402 0.608258
Head -79.310294 22.469561 -5.731749
LeftShoulder -11.009177 24.784893 13.417292
LeftArm -0.758641 42.151491 -73.345758
LeftForeArm 15.794389 -0.000000 12.752620
LeftHand -29.059305 -0.000000 -9.340419
LeftHandThumb1 -26.253704 0.000000 33.147579
RightShoulder -22.269422 10.572304 -23.628390
RightArm -29.972853 -28.607789 100.793431
RightForeArm -33.128849 -0.000000 13.454879
RightHand -6.355374 -0.000000 24.979764
RightHandThumb1 -24.326973 -0.000000 -32.862282
LeftUpLeg -84.574499 19.550672 11.983635
LeftLeg -10.125256 -0.000000 0.000000
LeftFoot -3.582825 30.476573 -0.462613
LeftToeBase 4.012351 -0.000000 -0.000000
RightUpLeg 11.108794 -5.011950 -14.350144
RightLeg 22.006676 -0.000000 -0.000000
RightFoot 42.961046 3.316585 0.995510
RightToeBase 18.117987 -0.000000 -0.000000
868
root -6.575781 33.642152 0.023001 182.211994 -64.343612 -88.732492
Spine -29.309294 17.362936 0.790128
Head -78.819920 22.673736 -5.823034
LeftShoulder -11.009249 24.731015 13.437123
LeftArm -0.388348 42.390919 -73.123131
LeftForeArm 15.528736 -0.000000 12.841669
LeftHand -29.239658 -0.000000 -9.089230
LeftHandThumb1 -26.253704 0.000000 33.147579
RightShoulder -22.277025 10.610465 -23.685854
RightArm -29.805050 -28.926511 100.918983
RightForeArm -33.100600 -0.000000 13.454477
RightHand -6.313106 0.000000 24.762639
RightHandThumb1 -24.326973 -0.000000 -32.862282
LeftUpLeg -83.775704 19.330622 12.054497
LeftLeg -10.177433 -0.000000 0.000000
LeftFoot -3.720191 30.404272 -0.928275
LeftToeBase 3.571226 -0.000000 -0.000000
RightUpLeg 11.054760 -5.097611 -14.161264
RightLeg 21.773759 -0.000000 -0.000000
RightFoot 42.911680 3.358661 1.077090
RightToeBase 18.239651 -0.000000 -0.000000
869
root -6.597046 33.645794 0.003531 181.987127 -64.305602 -89.250667
Spine -28.984352 17.510865 0.957631
Head -78.353836 22.826458 -6.002254
LeftShoulder -10.889620 24.402706 13.446667
LeftArm -0.381203 42.621624 -73.088895
LeftForeArm 15.587381 -0.000000 12.937952
LeftHand -29.181973 -0.000000 -8.798558
LeftHandThumb1 -26.253704 0.000000 33.147579
RightShoulder -22.341639 10.673838 -23.734785
RightArm -29.673936 -29.074188 100.925282
RightForeArm -32.980404 -0.000000 13.614581
RightHand -6.442346 -0.000000 24.578806
RightHandThumb1 -24.326973 -0.000000 -32.862282
LeftUpLeg -82.945788 19.233567 12.112057
LeftLeg -10.229823 -0.000000 0.000000
LeftFoot -3.760534 30.454001 -1.003557
LeftToeBase 3.531273 -0.000000 -0.000000
RightUpLeg 10.880647 -5.041864 -13.957477
RightLeg 21.575114 -0.000000 -0.000000
RightFoot 42.832099 3.263839 1.285427
RightToeBase 18.175471 -0.000000 -0.000000
870
root -6.617172 33.648044 -0.023387 181.661755 -64.326818 -89.699261
Spine -28.638297 17.575540 1.140580
Head -77.915747 22.960232 -6.055487
LeftShoulder -10.852542 24.257086 13.464802
LeftArm -0.021375 42.769913 -72.859894
LeftForeArm 15.470638 -0.000000 12.950104
LeftHand -29.022578 -0.000000 -8.548472
LeftHandThumb1 -26.253704 0.000000 33.147579
RightShoulder -22.401159 10.745796 -23.754615
RightArm -29.567023 -29.377638 101.015934
RightForeArm -32.699864 -0.000000 13.679741
RightHand -6.459817 -0.000000 24.238910
RightHandThumb1 -24.326973 -0.000000 -32.862282
LeftUpLeg -82.105431 19.084554 12.188297
LeftLeg -10.260163 -0.000000 0.000000
LeftFoot -3.741948 30.528954 -0.650877
LeftToeBase 4.096232 -0.000000 -0.000000
RightUpLeg 10.747297 -5.130335 -13.727818
RightLeg 21.358537 -0.000000 -0.000000
RightFoot 42.791739 3.333409 1.392497
RightToeBase 18.244544 -0.000000 -0.000000
871
root -6.640922 33.649664 -0.058047 181.304624 -64.434924 -90.124621
Spine -28.314866 17.443958 1.363858
Head -77.414495 23.245864 -6.071406
LeftShoulder -10.927633 24.185276 13.463784
LeftArm 0.379330 42.932335 -72.598574
LeftForeArm 15.194744 -0.000000 13.029868
LeftHand -29.175166 -0.000000 -8.142531
LeftHandThumb1 -26.253704 0.000000 33.147579
RightShoulder -22.327462 10.850171 -23.657089
RightArm -29.441327 -29.509894 100.944233
RightForeArm -32.514383 -0.000000 13.817394
RightHand -6.446154 -0.000000 24.165888
RightHandThumb1 -24.326973 -0.000000 -32.862282
LeftUpLeg -81.267815 18.863618 12.262003
LeftLeg -10.300811 -0.000000 0.000000
LeftFoot -3.770746 30.525173 -0.745163
LeftToeBase 4.104212 -0.000000 -0.000000
RightUpLeg 10.675887 -5.358715 -13.462883
RightLeg 21.072998 -0.000000 -0.000000
RightFoot 42.728647 3.467562 1.287213
RightToeBase 18.356516 -0.000000 -0.000000
872
root -6.665678 33.655085 -0.095955 180.891032 -64.456991 -90.488226
Spine -28.029951 17.466818 1.550708
Head -76.872121 23.484067 -6.005227
LeftShoulder -10.850781 24.163042 13.518587
LeftArm 0.783958 42.843007 -72.363338
LeftForeArm 14.999598 0.000000 13.117290
LeftHand -29.155614 -0.000000 -7.789603
LeftHandThumb1 -26.253704 0.000000 33.147579
RightShoulder -22.379969 10.829215 -23.544644
RightArm -29.242666 -29.994247 100.989874
RightForeArm -32.141164 -0.000000 13.887798
RightHand -6.482674 0.000000 24.110423
RightHandThumb1 -24.326973 -0.000000 -32.862282
LeftUpLeg -80.440580 18.751023 12.247025
LeftLeg -10.362469 -0.000000 0.000000
LeftFoot -3.785077 30.379085 -0.825746
LeftToeBase 4.063097 -0.000000 -0.000000
RightUpLeg 10.515015 -5.489842 -13.134725
RightLeg 20.855753 -0.000000 -0.000000
RightFoot 42.688318 3.581078 1.200013
RightToeBase 18.470467 -0.000000 -0.000000
873
root -6.689197 33.661394 -0.125057 180.561192 -64.482081 -90.935424
Spine -27.742833 17.441873 1.758098
Head -76.318362 23.713974 -5.963601
LeftShoulder -10.834025 24.123139 13.496020
LeftArm 1.154075 42.773053 -72.156783
LeftForeArm 15.101567 0.000000 13.177196
LeftHand -29.511596 -0.000000 -7.752528
LeftHandThumb1 -26.253704 0.000000 33.147579
RightShoulder -22.323399 10.864348 -23.497274
RightArm -28.957847 -30.121288 100.952159
RightForeArm -32.208477 -0.000000 13.836127
RightHand -6.423284 -0.000000 24.164091
RightHandThumb1 -24.326973 -0.000000 -32.862282
LeftUpLeg -79.627392 18.619884 12.211696
LeftLeg -10.401632 -0.000000 0.000000
LeftFoot -3.802603 30.261689 -0.928070
LeftToeBase 4.019408 -0.000000 -0.000000
RightUpLeg 10.316379 -5.589025 -12.830637
RightLeg 20.662188 -0.000000 -0.000000
RightFoot 42.661474 3.738787 1.138921
RightToeBase 18.529639 -0.000000 -0.000000
